Coordinates
version=1
nRows=29
nColumns=22
inDegrees=yes

Units are S.I. units (second, meters, Newtons, ...)
If the header above contains a line with 'inDegrees', this indicates whether rotational values are in degrees (yes) or radians (no).

endheader
time	pelvis_tilt	pelvis_list	pelvis_rotation	pelvis_tx	pelvis_ty	pelvis_tz	hip_flexion_r	hip_adduction_r	hip_rotation_r	knee_angle_r	ankle_angle_r	subtalar_angle_r	hip_flexion_l	hip_adduction_l	hip_rotation_l	knee_angle_l	ankle_angle_l	subtalar_angle_l	lumbar_extension	lumbar_bending	lumbar_rotation
      1.39000000	     -9.12511347	      0.37868981	     -2.17756306	     -0.58775381	      0.96336328	      0.19732967	     39.28706565	     -0.26896596	     -3.56722764	    -23.98966574	      9.29321803	      2.31178833	      9.45748581	      4.59975059	     -5.60695152	    -20.06502413	     26.56704397	     -4.52415725	     -2.42103076	      0.08447707	     -0.89812664
      1.40000000	     -9.09587778	      0.39906340	     -2.17498360	     -0.58261011	      0.96255562	      0.19783843	     39.43026301	     -0.30613597	     -4.06298664	    -23.72102744	      9.42938823	      2.09985264	      9.05408928	      4.60864337	     -5.59956011	    -19.99572611	     26.83202691	     -4.50568462	     -2.43484442	      0.09840361	     -0.95952417
      1.41000000	     -9.08803383	      0.42084038	     -2.14674755	     -0.57734252	      0.96166447	      0.19836501	     39.58230556	     -0.35673999	     -4.56173796	    -23.51143089	      9.62547202	      1.91128910	      8.68594761	      4.61588236	     -5.56802809	    -19.96717893	     27.13618206	     -4.47778999	     -2.42074670	      0.10667207	     -1.01591411
      1.42000000	     -9.05373657	      0.39313740	     -2.06812848	     -0.57188041	      0.96084035	      0.19885526	     39.64909951	     -0.38770675	     -5.09154407	    -23.29959314	      9.75094775	      1.52264114	      8.26815115	      4.57477598	     -5.48309022	    -19.92050531	     27.39620069	     -4.38946768	     -2.43074483	      0.18199580	     -1.15631354
      1.43000000	     -9.06635914	      0.38987229	     -1.96103536	     -0.56634229	      0.95985945	      0.19935651	     39.75655763	     -0.44466317	     -5.53849560	    -23.15849697	      9.98599024	      1.32671802	      7.93964295	      4.55073494	     -5.40000702	    -19.95755668	     27.72440112	     -4.32984746	     -2.38658815	      0.22739460	     -1.31189262
      1.44000000	     -9.06898037	      0.33497790	     -1.80369546	     -0.56063801	      0.95891091	      0.19983919	     39.80348170	     -0.47658662	     -5.99770853	    -23.03487972	     10.09330802	      0.93718256	      7.59460446	      4.47183277	     -5.25605074	    -20.00503936	     28.01193686	     -4.18031820	     -2.35028518	      0.33640473	     -1.51991776
      1.45000000	     -9.09731959	      0.28506571	     -1.61322003	     -0.55484108	      0.95786682	      0.20033326	     39.85513897	     -0.51558104	     -6.35838774	    -22.97264410	     10.22706029	      0.60886510	      7.30828944	      4.38992925	     -5.10479873	    -20.12333780	     28.33608677	     -4.04411126	     -2.28527084	      0.43709598	     -1.75153933
      1.46000000	     -9.14288550	      0.21560327	     -1.37461222	     -0.54892404	      0.95677645	      0.20081036	     39.89032039	     -0.55256989	     -6.65842563	    -22.96348112	     10.33321180	      0.33617070	      7.05963742	      4.28392400	     -4.91748643	    -20.29255444	     28.64327969	     -3.92831550	     -2.19879347	      0.55985991	     -2.02742425
      1.47000000	     -9.19777587	      0.12167096	     -1.10592380	     -0.54288730	      0.95564852	      0.20129452	     39.91691080	     -0.57187377	     -6.88907437	    -23.04003923	     10.34839310	     -0.01708846	      6.83478013	      4.14850207	     -4.69761708	    -20.50356802	     28.94857394	     -3.78975208	     -2.10106068	      0.71138379	     -2.31729627
      1.48000000	     -9.25956125	      0.01779088	     -0.81803274	     -0.53673351	      0.95449424	      0.20179906	     39.93744824	     -0.57975766	     -7.04010863	    -23.20869735	     10.24688354	     -0.46674053	      6.63147562	      3.99864426	     -4.45955676	    -20.75536294	     29.24608842	     -3.63150374	     -1.99390984	      0.87330398	     -2.60402055
      1.49000000	     -9.32177734	     -0.10085213	     -0.52602898	     -0.53043343	      0.95333134	      0.20235804	     39.96022273	     -0.56860104	     -7.15043091	    -23.49920698	     10.05272246	     -0.95080479	      6.43161187	      3.82940816	     -4.19909866	    -21.03119341	     29.52607973	     -3.47049679	     -1.88164896	      1.04590410	     -2.85576356
      1.50000000	     -9.37226177	     -0.25879823	     -0.20815422	     -0.52398092	      0.95222391	      0.20291919	     39.96271476	     -0.53563840	     -7.27002646	    -23.89329931	      9.75444125	     -1.21161160	      6.22151992	      3.61996964	     -3.88315858	    -21.32670834	     29.76782317	     -3.36256482	     -1.77622875	      1.26771336	     -3.13479998
      1.51000000	     -9.42332044	     -0.42072270	      0.08454759	     -0.51741548	      0.95113020	      0.20359598	     39.99259927	     -0.47469891	     -7.35782874	    -24.42010888	      9.31492748	     -1.65356694	      6.03151419	      3.39520292	     -3.58934815	    -21.67519103	     29.96978396	     -3.18703267	     -1.66692715	      1.48729725	     -3.35340868
      1.52000000	     -9.46927862	     -0.60818272	      0.35206067	     -0.51069203	      0.95011558	      0.20437396	     40.03204998	     -0.37127919	     -7.43912418	    -25.04813707	      8.75241505	     -2.04263805	      5.82706257	      3.13888767	     -3.28559334	    -22.02244544	     30.13713575	     -3.00588632	     -1.55324759	      1.73583872	     -3.54930898
      1.53000000	     -9.51038402	     -0.78865230	      0.56344794	     -0.50384415	      0.94918031	      0.20529778	     40.10260108	     -0.23532194	     -7.47653512	    -25.78602164	      8.12968497	     -2.52982750	      5.61710795	      2.88027671	     -3.02452097	    -22.38338431	     30.26381902	     -2.76124471	     -1.43987855	      1.97474670	     -3.68527412
      1.54000000	     -9.53838671	     -1.02477000	      0.73349616	     -0.49687186	      0.94839643	      0.20635906	     40.16656497	     -0.02196731	     -7.51687083	    -26.56980412	      7.53201262	     -2.75831276	      5.40389779	      2.55541283	     -2.75777563	    -22.78024562	     30.30427972	     -2.59592338	     -1.33650436	      2.27673008	     -3.76335913
      1.55000000	     -9.55745263	     -1.24990688	      0.83763489	     -0.48976708	      0.94774253	      0.20758358	     40.25204128	      0.21969817	     -7.53378883	    -27.42639816	      7.01582111	     -3.14005518	      5.17913647	      2.22765434	     -2.56938612	    -23.18743095	     30.29960090	     -2.30400734	     -1.23654292	      2.56359303	     -3.78718200
      1.56000000	     -9.55685646	     -1.47628684	      0.87047810	     -0.48254838	      0.94729631	      0.20896670	     40.31444511	      0.51109081	     -7.48217446	    -28.28609159	      6.59276069	     -3.27112032	      4.92324762	      1.89562037	     -2.39502970	    -23.58976253	     30.17151937	     -2.13931824	     -1.15817337	      2.85360485	     -3.74854816
      1.57000000	     -9.52342592	     -1.74979401	      0.86446835	     -0.47518743	      0.94704931	      0.21046618	     40.30723673	      0.87395091	     -7.43657867	    -29.10147323	      6.36969812	     -3.57822212	      4.65869848	      1.50134582	     -2.25502760	    -24.06110276	     30.03471905	     -1.73104428	     -1.11093008	      3.20203010	     -3.64795365
      1.58000000	     -9.45291943	     -1.99395362	      0.80363672	     -0.46766536	      0.94703850	      0.21205932	     40.23530615	      1.23174043	     -7.40237387	    -29.88875419	      6.27085162	     -3.80548255	      4.34198978	      1.13211557	     -2.17027798	    -24.52393957	     29.76607703	     -1.30418376	     -1.10020062	      3.52282809	     -3.51421553
      1.59000000	     -9.36336419	     -2.24190971	      0.71784416	     -0.46002305	      0.94721675	      0.21371904	     40.08571987	      1.60445663	     -7.38473244	    -30.59062189	      6.30824844	     -3.97823220	      4.02617587	      0.75829252	     -2.07465031	    -25.04009844	     29.42339897	     -0.86459189	     -1.10488562	      3.85218590	     -3.37314334
      1.60000000	     -9.25083259	     -2.48753473	      0.62407190	     -0.45226752	      0.94759125	      0.21539632	     39.84464416	      1.96977941	     -7.41857386	    -31.19336870	      6.44696302	     -4.14758579	      3.71714661	      0.38721245	     -1.97079450	    -25.62266304	     29.00501921	     -0.34124124	     -1.13043933	      4.18645635	     -3.22885124
      1.61000000	     -9.13813627	     -2.73459359	      0.53842440	     -0.44443847	      0.94811728	      0.21707416	     39.52898313	      2.32471335	     -7.50091235	    -31.68362545	      6.65949616	     -4.31481854	      3.46087209	      0.01513282	     -1.84084403	    -26.30236188	     28.50964191	      0.22941876	     -1.15040661	      4.52795658	     -3.09712780
      1.62000000	     -9.03921054	     -2.98154810	      0.46871257	     -0.43657815	      0.94876455	      0.21873394	     39.15386612	      2.66659725	     -7.62277225	    -32.05998496	      6.93032041	     -4.48688637	      3.29156644	     -0.35469643	     -1.67558843	    -27.10639244	     27.92958991	      0.83207629	     -1.15187648	      4.87446751	     -2.98414548
      1.63000000	     -8.96648052	     -3.23403349	      0.42202801	     -0.42871945	      0.94950756	      0.22036279	     38.73354619	      3.00195364	     -7.77246571	    -32.32159547	      7.25020073	     -4.66254848	      3.23790449	     -0.72724057	     -1.46323657	    -28.05443917	     27.25986317	      1.44563106	     -1.12070267	      5.23181420	     -2.89438459
      1.64000000	     -8.92127087	     -3.48676018	      0.39723725	     -0.42090247	      0.95033624	      0.22195933	     38.27779183	      3.33075251	     -7.93574100	    -32.47700325	      7.60415596	     -4.84275261	      3.31404123	     -1.09735849	     -1.21266448	    -29.16114231	     26.48722052	      2.07972706	     -1.06060617	      5.59256939	     -2.82067906
      1.65000000	     -8.89716123	     -3.71496688	      0.37700675	     -0.41316467	      0.95123713	      0.22355445	     37.80059378	      3.64699116	     -8.06650718	    -32.55626972	      7.97538144	     -5.05312754	      3.51976055	     -1.44692742	     -0.98066673	    -30.43163346	     25.58979818	      2.84890582	     -0.98607683	      5.92444639	     -2.75970665
      1.66000000	     -8.92096789	     -3.96032409	      0.38158310	     -0.40549364	      0.95218109	      0.22508824	     37.31582736	      3.97159855	     -8.21626195	    -32.53070181	      8.37873770	     -5.22926954	      3.87782314	     -1.80158385	     -0.67099537	    -31.84879641	     24.56515691	      3.54919455	     -0.85705503	      6.27732591	     -2.67703495
      1.67000000	     -8.95506406	     -4.23303034	      0.42230489	     -0.39792218	      0.95320642	      0.22653553	     36.79674140	      4.30910914	     -8.38984555	    -32.41584552	      8.76853471	     -5.33206312	      4.36047725	     -2.17932749	     -0.31963499	    -33.42291412	     23.40380791	      3.99767337	     -0.72405121	      6.66481552	     -2.61720525
